<svg width="960" height="540" viewBox="0 0 960 540" xmlns="http://www.w3.org/2000/svg" role="img" aria-label="Заброшенный завод с дымовыми трубами">
  <defs>
    <linearGradient id="steel" x1="0" y1="0" x2="0" y2="1">
      <stop offset="0%" stop-color="#0b1324"/>
      <stop offset="100%" stop-color="#050912"/>
    </linearGradient>
    <linearGradient id="glow" x1="0" y1="0" x2="1" y2="0">
      <stop offset="0%" stop-color="#f97316" stop-opacity="0.25"/>
      <stop offset="100%" stop-color="#f97316" stop-opacity="0"/>
    </linearGradient>
  </defs>
  <rect width="960" height="540" fill="url(#steel)"/>
  <rect y="360" width="960" height="180" fill="#0a0f1e"/>
  <g fill="#0f172a" opacity="0.95">
    <rect x="110" y="180" width="150" height="180" rx="4"/>
    <rect x="280" y="160" width="190" height="200" rx="4"/>
    <rect x="510" y="200" width="210" height="160" rx="4"/>
    <rect x="750" y="190" width="120" height="170" rx="4"/>
  </g>
  <g fill="#0c1220" opacity="0.9">
    <rect x="140" y="90" width="40" height="120" rx="6"/>
    <rect x="330" y="70" width="48" height="140" rx="6"/>
    <rect x="570" y="100" width="42" height="110" rx="6"/>
  </g>
  <g fill="#f59e0b" opacity="0.4">
    <rect x="140" y="70" width="40" height="20" rx="4"/>
    <rect x="330" y="50" width="48" height="20" rx="4"/>
    <rect x="570" y="80" width="42" height="20" rx="4"/>
  </g>
  <rect x="0" y="320" width="960" height="18" fill="#0e162a" opacity="0.8"/>
  <rect x="0" y="338" width="960" height="14" fill="#0b111f" opacity="0.8"/>
  <rect x="60" y="280" width="840" height="12" fill="url(#glow)"/>
  <rect width="960" height="540" fill="#cbd5e1" opacity="0.06"/>
</svg>
