<svg width="960" height="540" viewBox="0 0 960 540" xmlns="http://www.w3.org/2000/svg" role="img" aria-label="Старая заправка ночью">
  <defs>
    <linearGradient id="night" x1="0" y1="0" x2="0" y2="1">
      <stop offset="0%" stop-color="#0a1020"/>
      <stop offset="100%" stop-color="#05070f"/>
    </linearGradient>
    <linearGradient id="neon" x1="0" y1="0" x2="1" y2="0">
      <stop offset="0%" stop-color="#60a5fa" stop-opacity="0.4"/>
      <stop offset="100%" stop-color="#38bdf8" stop-opacity="0"/>
    </linearGradient>
  </defs>
  <rect width="960" height="540" fill="url(#night)"/>
  <rect y="340" width="960" height="200" fill="#0b1020"/>
  <g fill="#0e172a" opacity="0.9">
    <rect x="160" y="190" width="220" height="140" rx="8"/>
    <rect x="410" y="210" width="240" height="120" rx="8"/>
    <rect x="690" y="200" width="80" height="130" rx="6"/>
  </g>
  <rect x="200" y="220" width="140" height="12" fill="#38bdf8" opacity="0.7"/>
  <rect x="430" y="235" width="200" height="10" fill="#22d3ee" opacity="0.6"/>
  <rect x="430" y="250" width="200" height="70" fill="#0b152c"/>
  <rect x="705" y="225" width="50" height="90" fill="#0d1933"/>
  <rect x="0" y="310" width="960" height="16" fill="url(#neon)"/>
  <rect x="0" y="326" width="960" height="14" fill="#111827" opacity="0.8"/>
  <g fill="#cbd5e1" opacity="0.15">
    <rect x="70" y="150" width="40" height="110" rx="4"/>
    <rect x="840" y="150" width="55" height="120" rx="4"/>
  </g>
  <rect width="960" height="540" fill="#cbd5e1" opacity="0.06"/>
</svg>
