<svg width="960" height="540" viewBox="0 0 960 540" xmlns="http://www.w3.org/2000/svg" role="img" aria-label="Мрачное шоссе в Орегоне">
  <defs>
    <linearGradient id="sky" x1="0" y1="0" x2="0" y2="1">
      <stop offset="0%" stop-color="#1b233b"/>
      <stop offset="50%" stop-color="#111827"/>
      <stop offset="100%" stop-color="#0b101f"/>
    </linearGradient>
    <linearGradient id="fog" x1="0" y1="0" x2="1" y2="0">
      <stop offset="0%" stop-color="#9ca3af" stop-opacity="0.2"/>
      <stop offset="100%" stop-color="#f9fafb" stop-opacity="0"/>
    </linearGradient>
  </defs>
  <rect width="960" height="540" fill="url(#sky)"/>
  <rect y="360" width="960" height="180" fill="#0c101c"/>
  <rect y="330" width="960" height="70" fill="#0e172a"/>
  <g fill="#111827">
    <polygon points="0,320 160,260 220,280 0,330"/>
    <polygon points="260,310 420,250 500,270 320,330" opacity="0.8"/>
    <polygon points="520,310 700,240 880,280 760,330" opacity="0.7"/>
  </g>
  <rect y="320" width="960" height="20" fill="#0f172a" opacity="0.6"/>
  <g fill="#94a3b8" opacity="0.4">
    <rect x="80" y="150" width="60" height="120" rx="4"/>
    <rect x="210" y="170" width="70" height="110" rx="4"/>
    <rect x="360" y="160" width="90" height="125" rx="4"/>
    <rect x="540" y="140" width="110" height="140" rx="6"/>
    <rect x="720" y="170" width="80" height="115" rx="4"/>
  </g>
  <rect x="0" y="420" width="960" height="40" fill="#0b0f1a"/>
  <rect x="0" y="430" width="960" height="10" fill="#f3f4f6" opacity="0.08"/>
  <g stroke="#f3f4f6" stroke-width="10" stroke-linecap="round" opacity="0.35">
    <line x1="40" y1="440" x2="140" y2="440"/>
    <line x1="200" y1="440" x2="300" y2="440"/>
    <line x1="360" y1="440" x2="460" y2="440"/>
    <line x1="520" y1="440" x2="620" y2="440"/>
    <line x1="680" y1="440" x2="780" y2="440"/>
    <line x1="840" y1="440" x2="940" y2="440"/>
  </g>
  <rect width="960" height="540" fill="url(#fog)"/>
</svg>
