<svg width="960" height="540" viewBox="0 0 960 540" xmlns="http://www.w3.org/2000/svg" role="img" aria-label="Дом Харперов с огнями">
  <defs>
    <linearGradient id="dusk" x1="0" y1="0" x2="0" y2="1">
      <stop offset="0%" stop-color="#0e1a2f"/>
      <stop offset="100%" stop-color="#0a1224"/>
    </linearGradient>
    <linearGradient id="window" x1="0" y1="0" x2="1" y2="1">
      <stop offset="0%" stop-color="#fcd34d" stop-opacity="0.8"/>
      <stop offset="100%" stop-color="#f59e0b" stop-opacity="0.3"/>
    </linearGradient>
  </defs>
  <rect width="960" height="540" fill="url(#dusk)"/>
  <rect y="360" width="960" height="180" fill="#0b1020"/>
  <g fill="#0f172a" opacity="0.95">
    <rect x="170" y="190" width="220" height="150" rx="6"/>
    <rect x="390" y="210" width="160" height="130" rx="6"/>
    <rect x="590" y="190" width="180" height="150" rx="6"/>
  </g>
  <rect x="205" y="220" width="60" height="70" fill="url(#window)" rx="4"/>
  <rect x="290" y="220" width="60" height="70" fill="url(#window)" rx="4"/>
  <rect x="430" y="235" width="90" height="60" fill="#0b152c" rx="4"/>
  <rect x="630" y="220" width="60" height="70" fill="url(#window)" rx="4"/>
  <rect x="710" y="220" width="40" height="60" fill="#0b152c" rx="4"/>
  <rect x="0" y="330" width="960" height="20" fill="#111827" opacity="0.7"/>
  <rect x="0" y="350" width="960" height="16" fill="#0a0f1f" opacity="0.8"/>
  <g fill="#cbd5e1" opacity="0.18">
    <circle cx="120" cy="170" r="30"/>
    <circle cx="820" cy="150" r="40"/>
  </g>
  <rect width="960" height="540" fill="#cbd5e1" opacity="0.05"/>
</svg>
