<svg width="960" height="540" viewBox="0 0 960 540" xmlns="http://www.w3.org/2000/svg" role="img" aria-label="Полицейский участок в тумане">
  <defs>
    <linearGradient id="noir" x1="0" y1="0" x2="0" y2="1">
      <stop offset="0%" stop-color="#0f172a"/>
      <stop offset="100%" stop-color="#0b1020"/>
    </linearGradient>
    <linearGradient id="lights" x1="0" y1="0" x2="1" y2="0">
      <stop offset="0%" stop-color="#fcd34d" stop-opacity="0.25"/>
      <stop offset="100%" stop-color="#f97316" stop-opacity="0"/>
    </linearGradient>
  </defs>
  <rect width="960" height="540" fill="url(#noir)"/>
  <rect y="340" width="960" height="200" fill="#0c1224"/>
  <g fill="#111827">
    <rect x="120" y="160" width="260" height="180" rx="8"/>
    <rect x="430" y="150" width="180" height="190" rx="8" opacity="0.9"/>
    <rect x="640" y="170" width="140" height="170" rx="8" opacity="0.85"/>
  </g>
  <rect x="150" y="200" width="200" height="10" fill="#fbbf24" opacity="0.6"/>
  <rect x="150" y="215" width="200" height="70" fill="#0b1328"/>
  <rect x="470" y="210" width="80" height="100" fill="#0a142d"/>
  <rect x="670" y="210" width="60" height="90" fill="#0d1933"/>
  <circle cx="180" cy="235" r="6" fill="#facc15"/>
  <rect x="0" y="300" width="960" height="20" fill="#0f172a" opacity="0.5"/>
  <rect x="0" y="320" width="960" height="40" fill="#0a0f1c" opacity="0.75"/>
  <rect x="90" y="285" width="760" height="18" fill="url(#lights)"/>
  <rect width="960" height="540" fill="#cbd5e1" opacity="0.08"/>
</svg>
